<svg width="1919" height="98" viewBox="0.5 0 1919 98" fill="none" xmlns="http://www.w3.org/2000/svg">
<path d="M1453 43.4795C1544.44 43.5594 1648.06 46.8462 1735.38 50.1133C1822.14 53.3594 1892.84 56.5855 1919.5 56.626V96.9355H0.5V56.626C46.7831 56.6026 118.903 53.3422 202.628 50.0742C286.663 46.7942 382.405 43.5076 475.5 43.4795C570.346 43.4508 643.657 46.724 716.978 50.0117C790.299 53.2995 863.63 56.6018 958.5 56.6279C1055.03 56.6545 1130.4 53.3246 1205.77 50.0098C1281.14 46.6949 1356.5 43.3952 1453 43.4795Z" fill="black" stroke="black"/>
<path d="M1872 80.9659C1902.67 48.246 1938.6 -27.2115 1817 12.0524C1665 61.1322 1873.5 137.694 1710.5 59.3681C1547.5 -18.9576 1556 17.3476 1491 59.368C1426 101.388 1189.49 -4.81362 1134 73.8234C1102.52 118.432 1119 10.2886 1054 59.3684C989 108.448 937.014 93.9937 858.014 93.9937C779.014 93.9937 855.014 26.4245 727.514 26.4245C600.014 26.4245 638.014 12.3064 575.514 44.9138C513.014 77.5212 347.514 102.733 285.014 73.8234C222.514 44.9138 51.0144 24.7431 32.0144 59.3684C13.0144 93.9936 95.5 93.9936 109 93.9936" stroke="black" stroke-width="2"/>
<path d="M39.5 83.6543C8.83333 50.9344 21 0.958137 52.6381 44.9124C126.091 146.959 119.634 -36.724 279 44.9125C331.5 71.8061 408.638 -15.5973 473.638 26.4231C538.638 68.4436 888 122.902 880 73.822C872 24.7422 894.638 -4.16746 959.638 44.9124C1024.64 93.9922 1070.64 93.9923 1149.64 93.9923C1228.64 93.9923 1152.64 26.4231 1280.14 26.4231C1407.64 26.4231 1369.64 12.305 1432.14 44.9124C1494.64 77.5198 1660.14 102.732 1722.64 73.822C1785.14 44.9124 1837 28.5231 1856 63.1484C1875 97.7736 1899 63.1482 1899 73.822" stroke="black" stroke-width="2"/>
</svg>
